<svg width="137" height="153" viewBox="0 0 137 153" fill="none" xmlns="http://www.w3.org/2000/svg">
<path d="M68.4999 0.375C87.1928 0.375 102.333 15.5154 102.333 34.2083C102.333 52.9012 87.1928 68.0417 68.4999 68.0417C49.807 68.0417 34.6666 52.9012 34.6666 34.2083C34.6666 15.5154 49.807 0.375 68.4999 0.375ZM102.333 89.5258C102.333 98.4917 99.9649 119.384 83.8095 142.729L76.9583 101.875L84.9091 85.9733C79.6649 85.3812 74.167 84.9583 68.4999 84.9583C62.8328 84.9583 57.3349 85.3812 52.0908 85.9733L60.0416 101.875L53.1903 142.729C37.0349 119.384 34.6666 98.4917 34.6666 89.5258C14.4512 95.4467 0.833252 106.104 0.833252 118.792V152.625H136.167V118.792C136.167 106.104 122.633 95.4467 102.333 89.5258Z" fill="#434242"/>
</svg>
