<svg width="143" height="110" viewBox="0 0 143 110" fill="none" xmlns="http://www.w3.org/2000/svg">
<g opacity="0.5">
<g opacity="0.6">
<circle cx="2.95652" cy="2.95652" r="2.95652" fill="#D9D9D9"/>
<circle cx="18.4783" cy="2.95652" r="2.95652" fill="#D9D9D9"/>
<circle cx="34" cy="2.95652" r="2.95652" fill="#D9D9D9"/>
<circle cx="49.5217" cy="2.95652" r="2.95652" fill="#D9D9D9"/>
<circle cx="65.0434" cy="2.95652" r="2.95652" fill="#D9D9D9"/>
<circle cx="2.95652" cy="17.7391" r="2.95652" fill="#D9D9D9"/>
<circle cx="18.4783" cy="17.7391" r="2.95652" fill="#D9D9D9"/>
<circle cx="34" cy="17.7391" r="2.95652" fill="#D9D9D9"/>
<circle cx="49.5217" cy="17.7391" r="2.95652" fill="#D9D9D9"/>
<circle cx="65.0434" cy="17.7391" r="2.95652" fill="#D9D9D9"/>
<circle cx="2.95652" cy="32.5217" r="2.95652" fill="#D9D9D9"/>
<circle cx="18.4783" cy="32.5217" r="2.95652" fill="#D9D9D9"/>
<circle cx="34" cy="32.5217" r="2.95652" fill="#D9D9D9"/>
<circle cx="49.5217" cy="32.5217" r="2.95652" fill="#D9D9D9"/>
<circle cx="65.0434" cy="32.5217" r="2.95652" fill="#D9D9D9"/>
<circle cx="2.95652" cy="47.3044" r="2.95652" fill="#D9D9D9"/>
<circle cx="18.4783" cy="47.3044" r="2.95652" fill="#D9D9D9"/>
<circle cx="34" cy="47.3044" r="2.95652" fill="#D9D9D9"/>
<circle cx="49.5217" cy="47.3044" r="2.95652" fill="#D9D9D9"/>
<circle cx="65.0434" cy="47.3044" r="2.95652" fill="#D9D9D9"/>
</g>
<g opacity="0.6">
<circle cx="77.9565" cy="2.95652" r="2.95652" fill="#D9D9D9"/>
<circle cx="93.4782" cy="2.95652" r="2.95652" fill="#D9D9D9"/>
<circle cx="109" cy="2.95652" r="2.95652" fill="#D9D9D9"/>
<circle cx="124.522" cy="2.95652" r="2.95652" fill="#D9D9D9"/>
<circle cx="140.043" cy="2.95652" r="2.95652" fill="#D9D9D9"/>
<circle cx="77.9565" cy="17.7391" r="2.95652" fill="#D9D9D9"/>
<circle cx="93.4782" cy="17.7391" r="2.95652" fill="#D9D9D9"/>
<circle cx="109" cy="17.7391" r="2.95652" fill="#D9D9D9"/>
<circle cx="124.522" cy="17.7391" r="2.95652" fill="#D9D9D9"/>
<circle cx="140.043" cy="17.7391" r="2.95652" fill="#D9D9D9"/>
<circle cx="77.9565" cy="32.5217" r="2.95652" fill="#D9D9D9"/>
<circle cx="93.4782" cy="32.5217" r="2.95652" fill="#D9D9D9"/>
<circle cx="109" cy="32.5217" r="2.95652" fill="#D9D9D9"/>
<circle cx="124.522" cy="32.5217" r="2.95652" fill="#D9D9D9"/>
<circle cx="140.043" cy="32.5217" r="2.95652" fill="#D9D9D9"/>
<circle cx="77.9565" cy="47.3044" r="2.95652" fill="#D9D9D9"/>
<circle cx="93.4782" cy="47.3044" r="2.95652" fill="#D9D9D9"/>
<circle cx="109" cy="47.3044" r="2.95652" fill="#D9D9D9"/>
<circle cx="124.522" cy="47.3044" r="2.95652" fill="#D9D9D9"/>
<circle cx="140.043" cy="47.3044" r="2.95652" fill="#D9D9D9"/>
</g>
<g opacity="0.6">
<circle cx="2.95652" cy="61.9565" r="2.95652" fill="#D9D9D9"/>
<circle cx="18.4783" cy="61.9565" r="2.95652" fill="#D9D9D9"/>
<circle cx="34" cy="61.9565" r="2.95652" fill="#D9D9D9"/>
<circle cx="49.5217" cy="61.9565" r="2.95652" fill="#D9D9D9"/>
<circle cx="65.0434" cy="61.9565" r="2.95652" fill="#D9D9D9"/>
<circle cx="2.95652" cy="76.7391" r="2.95652" fill="#D9D9D9"/>
<circle cx="18.4783" cy="76.7391" r="2.95652" fill="#D9D9D9"/>
<circle cx="34" cy="76.7391" r="2.95652" fill="#D9D9D9"/>
<circle cx="49.5217" cy="76.7391" r="2.95652" fill="#D9D9D9"/>
<circle cx="65.0434" cy="76.7391" r="2.95652" fill="#D9D9D9"/>
<circle cx="2.95652" cy="91.5217" r="2.95652" fill="#D9D9D9"/>
<circle cx="18.4783" cy="91.5217" r="2.95652" fill="#D9D9D9"/>
<circle cx="34" cy="91.5217" r="2.95652" fill="#D9D9D9"/>
<circle cx="49.5217" cy="91.5217" r="2.95652" fill="#D9D9D9"/>
<circle cx="65.0434" cy="91.5217" r="2.95652" fill="#D9D9D9"/>
<circle cx="2.95652" cy="106.304" r="2.95652" fill="#D9D9D9"/>
<circle cx="18.4783" cy="106.304" r="2.95652" fill="#D9D9D9"/>
<circle cx="34" cy="106.304" r="2.95652" fill="#D9D9D9"/>
<circle cx="49.5217" cy="106.304" r="2.95652" fill="#D9D9D9"/>
<circle cx="65.0434" cy="106.304" r="2.95652" fill="#D9D9D9"/>
</g>
<g opacity="0.6">
<circle cx="77.9565" cy="61.9565" r="2.95652" fill="#D9D9D9"/>
<circle cx="93.4782" cy="61.9565" r="2.95652" fill="#D9D9D9"/>
<circle cx="109" cy="61.9565" r="2.95652" fill="#D9D9D9"/>
<circle cx="124.522" cy="61.9565" r="2.95652" fill="#D9D9D9"/>
<circle cx="140.043" cy="61.9565" r="2.95652" fill="#D9D9D9"/>
<circle cx="77.9565" cy="76.7391" r="2.95652" fill="#D9D9D9"/>
<circle cx="93.4782" cy="76.7391" r="2.95652" fill="#D9D9D9"/>
<circle cx="109" cy="76.7391" r="2.95652" fill="#D9D9D9"/>
<circle cx="124.522" cy="76.7391" r="2.95652" fill="#D9D9D9"/>
<circle cx="140.043" cy="76.7391" r="2.95652" fill="#D9D9D9"/>
<circle cx="77.9565" cy="91.5217" r="2.95652" fill="#D9D9D9"/>
<circle cx="93.4782" cy="91.5217" r="2.95652" fill="#D9D9D9"/>
<circle cx="109" cy="91.5217" r="2.95652" fill="#D9D9D9"/>
<circle cx="124.522" cy="91.5217" r="2.95652" fill="#D9D9D9"/>
<circle cx="140.043" cy="91.5217" r="2.95652" fill="#D9D9D9"/>
<circle cx="77.9565" cy="106.304" r="2.95652" fill="#D9D9D9"/>
<circle cx="93.4782" cy="106.304" r="2.95652" fill="#D9D9D9"/>
<circle cx="109" cy="106.304" r="2.95652" fill="#D9D9D9"/>
<circle cx="124.522" cy="106.304" r="2.95652" fill="#D9D9D9"/>
<circle cx="140.043" cy="106.304" r="2.95652" fill="#D9D9D9"/>
</g>
</g>
</svg>
