<svg width="33" height="32" viewBox="0 0 33 32" fill="none" xmlns="http://www.w3.org/2000/svg">
<g clip-path="url(#clip0_155_87)">
<path d="M16.5 32C25.6127 32 33 24.8366 33 16C33 7.16344 25.6127 0 16.5 0C7.3873 0 0 7.16344 0 16C0 24.8366 7.3873 32 16.5 32Z" fill="#3B5998"/>
<path d="M20.6481 16.6263H17.7039V27.0857H13.2431V16.6263H11.1216V12.9505H13.2431V10.5718C13.2431 8.87077 14.0764 6.20714 17.7436 6.20714L21.0478 6.22055V9.78859H18.6504C18.2571 9.78859 17.7042 9.97911 17.7042 10.7905V12.9539H21.0378L20.6481 16.6263Z" fill="white"/>
</g>
<defs>
<clipPath id="clip0_155_87">
<rect width="33" height="32" fill="white"/>
</clipPath>
</defs>
</svg>
