<svg width="152" height="152" viewBox="0 0 152 152" fill="none" xmlns="http://www.w3.org/2000/svg">
<path d="M127.49 33.5984C131.105 33.5984 134.571 32.1624 137.127 29.6064C139.683 27.0504 141.119 23.5837 141.119 19.969C141.119 16.3543 139.683 12.8876 137.127 10.3316C134.571 7.77563 131.105 6.33969 127.49 6.33969C123.875 6.33969 120.409 7.77563 117.853 10.3316C115.297 12.8876 113.861 16.3543 113.861 19.969C113.861 23.5837 115.297 27.0504 117.853 29.6064C120.409 32.1624 123.875 33.5984 127.49 33.5984ZM127.49 39.653C122.669 39.653 118.046 41.5681 114.637 44.9768C111.228 48.3856 109.313 53.0089 109.313 57.8297V72.9664H118.402L121.435 100.231H133.551L136.578 72.9727H145.667V57.8234C145.667 53.0026 143.752 48.3793 140.343 44.9705C136.934 41.5617 132.311 39.653 127.49 39.653Z" fill="#E3E3E3"/>
<path d="M127.49 19.8867C129.88 19.8902 132.228 20.526 134.293 21.7295C136.359 22.933 138.069 24.6614 139.251 26.7393C140.464 24.6859 141.111 22.3476 141.126 19.9627C141.126 16.348 139.69 12.8813 137.134 10.3253C134.578 7.76929 131.111 6.33334 127.496 6.33334C123.882 6.33334 120.415 7.76929 117.859 10.3253C115.303 12.8813 113.867 16.348 113.867 19.9627C113.88 22.3503 114.526 24.6873 115.735 26.7393C116.916 24.6602 118.626 22.9305 120.692 21.7259C122.758 20.5212 125.105 19.8845 127.496 19.8803M127.49 39.653C122.669 39.653 118.046 41.568 114.637 44.9768C111.228 48.3856 109.313 53.0089 109.313 57.8297V71.3703C109.313 66.5496 111.228 61.9263 114.637 58.5175C118.046 55.1087 122.669 53.1937 127.49 53.1937C132.311 53.1937 136.934 55.1087 140.343 58.5175C143.752 61.9263 145.667 66.5496 145.667 71.3703V57.8297C145.667 53.0089 143.752 48.3856 140.343 44.9768C136.934 41.568 132.311 39.653 127.49 39.653Z" fill="white"/>
<path d="M127.49 33.5984C131.105 33.5984 134.571 32.1624 137.127 29.6064C139.683 27.0504 141.119 23.5837 141.119 19.969C141.119 16.3543 139.683 12.8876 137.127 10.3316C134.571 7.77563 131.105 6.33969 127.49 6.33969C123.875 6.33969 120.409 7.77563 117.853 10.3316C115.297 12.8876 113.861 16.3543 113.861 19.969C113.861 23.5837 115.297 27.0504 117.853 29.6064C120.409 32.1624 123.875 33.5984 127.49 33.5984ZM127.49 39.653C122.669 39.653 118.046 41.5681 114.637 44.9768C111.228 48.3856 109.313 53.0089 109.313 57.8297V72.9664H118.402L121.435 100.231H133.551L136.578 72.9727H145.667V57.8234C145.667 53.0026 143.752 48.3793 140.343 44.9705C136.934 41.5617 132.311 39.653 127.49 39.653Z" stroke="#191919" stroke-linecap="round" stroke-linejoin="round"/>
<path d="M75.9999 69.9453C78.1877 69.9453 80.3541 69.5144 82.3754 68.6772C84.3966 67.8399 86.2332 66.6128 87.7802 65.0658C89.3272 63.5188 90.5544 61.6822 91.3916 59.6609C92.2288 57.6397 92.6597 55.4733 92.6597 53.2855C92.6597 51.0977 92.2288 48.9313 91.3916 46.9101C90.5544 44.8888 89.3272 43.0522 87.7802 41.5052C86.2332 39.9582 84.3966 38.7311 82.3754 37.8938C80.3541 37.0566 78.1877 36.6257 75.9999 36.6257C71.5823 36.6257 67.3456 38.3806 64.2219 41.5043C61.0981 44.628 59.3432 48.8647 59.3432 53.2823C59.3432 57.7 61.0981 61.9366 64.2219 65.0604C67.3456 68.1841 71.5823 69.9453 75.9999 69.9453ZM97.2102 97.204C97.2102 91.5803 94.9763 86.187 90.9997 82.2105C87.0232 78.234 81.6299 76 76.0063 76C70.3826 76 64.9893 78.234 61.0128 82.2105C57.0362 86.187 54.8022 91.5803 54.8022 97.204V115.381H64.3909L66.9242 145.66H85.0946L87.6152 115.374H97.2102V97.204Z" fill="#E3E3E3"/>
<path d="M75.9999 50.1727C79.217 50.1757 82.3644 51.1104 85.0618 52.8636C87.7591 54.6169 89.8911 57.1138 91.1999 60.0527C92.3396 57.5161 92.826 54.7345 92.6148 51.9616C92.4037 49.1888 91.5016 46.513 89.991 44.1782C88.4804 41.8434 86.4092 39.924 83.9665 38.595C81.5237 37.266 78.7871 36.5698 76.0063 36.5698C73.2254 36.5698 70.4888 37.266 68.046 38.595C65.6033 39.924 63.5321 41.8434 62.0215 44.1782C60.5109 46.513 59.6088 49.1888 59.3977 51.9616C59.1865 54.7345 59.6729 57.5161 60.8126 60.0527C62.1215 57.117 64.2519 54.6227 66.9467 52.8708C69.6415 51.1188 72.7857 50.1776 75.9999 50.1727ZM76.0063 76C70.3836 76.0034 64.9923 78.2384 61.0165 82.2142C57.0407 86.19 54.8056 91.5814 54.8022 97.204V110.745C54.8022 105.121 57.0362 99.7277 61.0128 95.7512C64.9893 91.7747 70.3826 89.5407 76.0063 89.5407C81.6299 89.5407 87.0232 91.7747 90.9997 95.7512C94.9763 99.7277 97.2102 105.121 97.2102 110.745V97.204C97.2111 94.4187 96.663 91.6605 95.5973 89.0871C94.5316 86.5138 92.9692 84.1756 90.9994 82.2064C89.0295 80.2372 86.691 78.6755 84.1173 77.6105C81.5436 76.5456 78.7852 75.9983 75.9999 76" fill="white"/>
<path d="M75.9999 69.9453C78.1877 69.9453 80.3541 69.5144 82.3754 68.6772C84.3966 67.8399 86.2332 66.6128 87.7802 65.0658C89.3272 63.5188 90.5544 61.6822 91.3916 59.6609C92.2288 57.6397 92.6597 55.4733 92.6597 53.2855C92.6597 51.0977 92.2288 48.9313 91.3916 46.9101C90.5544 44.8888 89.3272 43.0522 87.7802 41.5052C86.2332 39.9582 84.3966 38.7311 82.3754 37.8938C80.3541 37.0566 78.1877 36.6257 75.9999 36.6257C71.5823 36.6257 67.3456 38.3806 64.2219 41.5043C61.0981 44.628 59.3432 48.8647 59.3432 53.2823C59.3432 57.7 61.0981 61.9366 64.2219 65.0604C67.3456 68.1841 71.5823 69.9453 75.9999 69.9453ZM97.2102 97.204C97.2102 91.5803 94.9763 86.187 90.9997 82.2105C87.0232 78.234 81.6299 76 76.0062 76C70.3826 76 64.9893 78.234 61.0128 82.2105C57.0362 86.187 54.8022 91.5803 54.8022 97.204V115.381H64.3909L66.9242 145.66H85.0946L87.6152 115.374H97.2102V97.204Z" stroke="#191919" stroke-linecap="round" stroke-linejoin="round"/>
<path d="M24.5099 33.5983C26.3002 33.5983 28.0729 33.2457 29.7268 32.5606C31.3808 31.8755 32.8837 30.8714 34.1496 29.6055C35.4154 28.3396 36.4196 26.8367 37.1047 25.1828C37.7898 23.5288 38.1424 21.7561 38.1424 19.9658C38.1424 18.1756 37.7898 16.4029 37.1047 14.7489C36.4196 13.0949 35.4154 11.5921 34.1496 10.3262C32.8837 9.06032 31.3808 8.05615 29.7268 7.37106C28.0729 6.68596 26.3002 6.33334 24.5099 6.33334C20.8952 6.33334 17.4285 7.76929 14.8725 10.3253C12.3165 12.8813 10.8806 16.348 10.8806 19.9627C10.8806 23.5774 12.3165 27.0441 14.8725 29.6001C17.4285 32.1561 20.8952 33.5983 24.5099 33.5983ZM24.5099 39.653C19.6892 39.653 15.0659 41.568 11.6571 44.9768C8.24829 48.3856 6.33325 53.0089 6.33325 57.8297V72.9663H15.4216L18.4489 100.231H30.5646L33.5919 72.9727H42.6866V57.8233C42.6866 53.0026 40.7715 48.3793 37.3628 44.9705C33.954 41.5617 29.3307 39.653 24.5099 39.653Z" fill="#E3E3E3"/>
<path d="M24.5099 19.8867C26.8994 19.8913 29.2452 20.5276 31.3095 21.7311C33.3738 22.9345 35.0832 24.6623 36.2646 26.7393C37.4861 24.6895 38.1336 22.3488 38.1393 19.9627C38.1393 16.348 36.7033 12.8813 34.1473 10.3253C31.5913 7.76929 28.1246 6.33334 24.5099 6.33334C20.8952 6.33334 17.4285 7.76929 14.8725 10.3253C12.3165 12.8813 10.8806 16.348 10.8806 19.9627C10.8933 22.3503 11.5393 24.6873 12.7489 26.7393C13.93 24.6602 15.6401 22.9305 17.7057 21.7259C19.7712 20.5212 22.1187 19.8845 24.5099 19.8803M24.5099 39.653C19.6892 39.653 15.0659 41.568 11.6571 44.9768C8.24829 48.3856 6.33325 53.0089 6.33325 57.8297V71.3703C6.42214 66.6092 8.37591 62.073 11.7744 58.7374C15.1729 55.4017 19.7448 53.533 24.5068 53.533C29.2687 53.533 33.8406 55.4017 37.2391 58.7374C40.6376 62.073 42.5914 66.6092 42.6803 71.3703V57.8297C42.6803 53.0089 40.7652 48.3856 37.3564 44.9768C33.9476 41.568 29.3307 39.653 24.5099 39.653Z" fill="white"/>
<path d="M24.5099 33.5983C26.3002 33.5983 28.0729 33.2457 29.7268 32.5606C31.3808 31.8755 32.8837 30.8714 34.1496 29.6055C35.4154 28.3396 36.4196 26.8367 37.1047 25.1828C37.7898 23.5288 38.1424 21.7561 38.1424 19.9658C38.1424 18.1756 37.7898 16.4029 37.1047 14.7489C36.4196 13.0949 35.4154 11.5921 34.1496 10.3262C32.8837 9.06032 31.3808 8.05615 29.7268 7.37106C28.0729 6.68596 26.3002 6.33334 24.5099 6.33334C20.8952 6.33334 17.4285 7.76929 14.8725 10.3253C12.3165 12.8813 10.8806 16.348 10.8806 19.9627C10.8806 23.5774 12.3165 27.0441 14.8725 29.6001C17.4285 32.1561 20.8952 33.5983 24.5099 33.5983ZM24.5099 39.653C19.6892 39.653 15.0659 41.568 11.6571 44.9768C8.24829 48.3856 6.33325 53.0089 6.33325 57.8297V72.9663H15.4216L18.4489 100.231H30.5646L33.5919 72.9727H42.6866V57.8233C42.6866 53.0026 40.7715 48.3793 37.3628 44.9705C33.954 41.5617 29.3307 39.653 24.5099 39.653Z" stroke="#191919" stroke-linecap="round" stroke-linejoin="round"/>
</svg>
