<svg width="213" height="212" viewBox="0 0 213 212" fill="none" xmlns="http://www.w3.org/2000/svg">
<g filter="url(#filter0_d_26_370)">
<ellipse cx="96.5267" cy="73.8372" rx="34.0533" ry="33.4512" fill="#6857D8"/>
</g>
<path fill-rule="evenodd" clip-rule="evenodd" d="M101.989 60.5969C102.884 60.5969 103.778 60.721 104.628 61.0011C109.865 62.6737 111.752 68.3185 110.176 73.2526C109.282 75.774 107.821 78.0751 105.907 79.9554C103.167 82.5618 100.16 84.8755 96.9236 86.8686L96.5689 87.0791L96.2 86.8547C92.9521 84.8755 89.9285 82.5618 87.1631 79.9414C85.2618 78.0612 83.7989 75.774 82.8908 73.2526C81.2874 68.3185 83.1746 62.6737 88.4684 60.9718C88.8799 60.8325 89.3042 60.7349 89.7298 60.6805H89.9001C90.2988 60.6234 90.6947 60.5969 91.092 60.5969H91.248C92.1419 60.6234 93.0075 60.7767 93.846 61.0569H93.9297C93.9865 61.0833 94.0291 61.1126 94.0574 61.1391C94.371 61.238 94.6676 61.3496 94.9513 61.5029L95.4905 61.7398C95.6208 61.8081 95.767 61.9124 95.8934 62.0025C95.9735 62.0596 96.0456 62.111 96.1006 62.144C96.1238 62.1574 96.1473 62.1709 96.1711 62.1845C96.2927 62.2543 96.4195 62.327 96.5263 62.4074C98.1027 61.2241 100.017 60.583 101.989 60.5969ZM105.763 70.6323C106.345 70.6169 106.841 70.1584 106.884 69.5716V69.4057C106.927 67.453 105.722 65.6843 103.89 65.0013C103.308 64.8048 102.67 65.1128 102.457 65.6982C102.258 66.2836 102.571 66.9247 103.167 67.1324C104.076 67.4669 104.685 68.3464 104.685 69.3207V69.3639C104.658 69.6831 104.756 69.9911 104.954 70.2281C105.153 70.465 105.451 70.603 105.763 70.6323Z" fill="white"/>
<defs>
<filter id="filter0_d_26_370" x="0.473389" y="0.385986" width="212.107" height="210.902" filterUnits="userSpaceOnUse" color-interpolation-filters="sRGB">
<feFlood flood-opacity="0" result="BackgroundImageFix"/>
<feColorMatrix in="SourceAlpha" type="matrix" values="0 0 0 0 0 0 0 0 0 0 0 0 0 0 0 0 0 0 127 0" result="hardAlpha"/>
<feOffset dx="10" dy="32"/>
<feGaussianBlur stdDeviation="36"/>
<feColorMatrix type="matrix" values="0 0 0 0 0.2 0 0 0 0 0.2 0 0 0 0 0.2 0 0 0 0.05 0"/>
<feBlend mode="normal" in2="BackgroundImageFix" result="effect1_dropShadow_26_370"/>
<feBlend mode="normal" in="SourceGraphic" in2="effect1_dropShadow_26_370" result="shape"/>
</filter>
</defs>
</svg>
