<svg width="40" height="40" viewBox="0 0 40 40" fill="none" xmlns="http://www.w3.org/2000/svg">
<path d="M36.2087 15H11.8025C11.2776 14.9999 10.766 15.165 10.3401 15.4719C9.91429 15.7788 9.59587 16.212 9.43 16.71L5 30V12.5H35C35 11.837 34.7366 11.2011 34.2678 10.7322C33.7989 10.2634 33.163 10 32.5 10H18.905C18.3202 9.99974 17.7541 9.7945 17.305 9.42L15.695 8.08C15.2459 7.7055 14.6798 7.50026 14.095 7.5H5C4.33696 7.5 3.70107 7.76339 3.23223 8.23223C2.76339 8.70107 2.5 9.33696 2.5 10V30C2.5 30.663 2.76339 31.2989 3.23223 31.7678C3.70107 32.2366 4.33696 32.5 5 32.5H32.5L38.5062 18.485C38.6693 18.1048 38.7353 17.69 38.6986 17.278C38.6618 16.8659 38.5234 16.4694 38.2957 16.124C38.068 15.7786 37.7581 15.4951 37.3939 15.2989C37.0297 15.1028 36.6225 15 36.2087 15Z" fill="#6857D6"/>
<path d="M20 17.5H40V25H20V17.5ZM20 27.5H27.5V35H20V27.5ZM30 27.5H40V35H30V27.5Z" fill="#E1BEE7"/>
</svg>
