<svg width="34" height="34" viewBox="0 0 34 34" fill="none" xmlns="http://www.w3.org/2000/svg">
<path d="M23.375 16.6316C23.375 15.7958 23.2759 14.9883 23.1767 14.1666H27.965C28.0784 14.6341 28.1775 15.1158 28.2342 15.5833C29.2542 15.6824 30.2317 15.9091 31.1667 16.2916C30.7559 8.79742 24.5792 2.83325 17 2.83325C9.16587 2.83325 2.83337 9.20825 2.83337 16.9999C2.83337 24.7916 9.20837 31.1666 17 31.1666C18.2325 31.1666 19.4225 30.9966 20.5417 30.6991C19.3896 29.296 18.671 27.5879 18.4734 25.7833C18.0342 26.6474 17.5525 27.4832 17 28.2766C15.8242 26.5766 14.875 24.6924 14.2942 22.6666H18.6717C18.9125 21.6466 19.3234 20.6974 19.8759 19.8333H13.685C13.5434 18.8983 13.4584 17.9633 13.4584 16.9999C13.4584 16.0366 13.5434 15.0874 13.685 14.1666H20.315C20.4425 15.0874 20.5417 16.0366 20.5417 16.9999C20.5417 17.7083 20.485 18.4166 20.4 19.1249C21.2001 18.0888 22.215 17.2382 23.375 16.6316ZM6.03504 19.8333C5.80837 18.9266 5.66671 17.9774 5.66671 16.9999C5.66671 16.0224 5.80837 15.0733 6.03504 14.1666H10.8234C10.71 15.1016 10.625 16.0366 10.625 16.9999C10.625 17.9633 10.71 18.8983 10.8234 19.8333H6.03504ZM7.19671 22.6666H11.3334C11.8292 24.4374 12.4667 26.1374 13.3167 27.7099C10.7359 26.8207 8.56278 25.0299 7.19671 22.6666ZM11.3334 11.3333H7.19671C8.55478 8.96322 10.7308 7.17001 13.3167 6.28992C12.4667 7.86242 11.8292 9.56242 11.3334 11.3333ZM14.2942 11.3333C14.875 9.30742 15.8242 7.40909 17 5.70909C18.1759 7.40909 19.125 9.30742 19.7059 11.3333H14.2942ZM26.8034 11.3333H22.6242C22.1801 9.57887 21.5236 7.88523 20.6692 6.28992C23.2759 7.18242 25.4434 8.98159 26.8034 11.3333ZM32.5834 24.7916C32.5834 25.9533 32.2292 27.0299 31.6342 27.9224L30.09 26.3783C30.3309 25.8966 30.4584 25.3583 30.4584 24.7916C30.4584 23.8523 30.0852 22.9514 29.421 22.2872C28.7569 21.6231 27.856 21.2499 26.9167 21.2499V23.3749L23.7292 20.1874L26.9167 16.9999V19.1249C30.0475 19.1249 32.5834 21.6608 32.5834 24.7916ZM26.9167 26.2083L30.1042 29.3958L26.9167 32.5833V30.4583C23.7859 30.4583 21.25 27.9224 21.25 24.7916C21.25 23.6299 21.6042 22.5533 22.1992 21.6608L23.7434 23.2049C23.5025 23.6866 23.375 24.2249 23.375 24.7916C23.375 25.7309 23.7482 26.6317 24.4124 27.2959C25.0766 27.9601 25.9774 28.3333 26.9167 28.3333V26.2083Z" fill="white"/>
</svg>
