<svg width="30" height="30" viewBox="0 0 30 30" fill="none" xmlns="http://www.w3.org/2000/svg">
<path fill-rule="evenodd" clip-rule="evenodd" d="M11.25 6.25C11.25 5.58696 11.5134 4.95107 11.9822 4.48223C12.4511 4.01339 13.087 3.75 13.75 3.75H16.25C16.913 3.75 17.5489 4.01339 18.0178 4.48223C18.4866 4.95107 18.75 5.58696 18.75 6.25V11.25H23.75C24.413 11.25 25.0489 11.5134 25.5178 11.9822C25.9866 12.4511 26.25 13.087 26.25 13.75V16.25C26.25 16.913 25.9866 17.5489 25.5178 18.0178C25.0489 18.4866 24.413 18.75 23.75 18.75H18.75V23.75C18.75 24.413 18.4866 25.0489 18.0178 25.5178C17.5489 25.9866 16.913 26.25 16.25 26.25H13.75C13.087 26.25 12.4511 25.9866 11.9822 25.5178C11.5134 25.0489 11.25 24.413 11.25 23.75V18.75H6.25C5.58696 18.75 4.95107 18.4866 4.48223 18.0178C4.01339 17.5489 3.75 16.913 3.75 16.25V13.75C3.75 13.087 4.01339 12.4511 4.48223 11.9822C4.95107 11.5134 5.58696 11.25 6.25 11.25H11.25V6.25Z" fill="white"/>
</svg>
