<svg width="173" height="137" viewBox="0 0 173 137" fill="none" xmlns="http://www.w3.org/2000/svg">
<path d="M1.98289 134.466C2.17953 135.56 3.21556 136.289 4.29691 136.095C5.37827 135.902 6.09548 134.859 5.89884 133.766L3.94086 134.116L1.98289 134.466ZM172.06 21.5406L162.912 0.207157L149.23 18.7871L172.06 21.5406ZM3.94086 134.116L5.89884 133.766C-2.93843 84.6438 22.5294 49.134 56.5674 28.425C73.5969 18.0641 92.7137 11.4582 110.598 8.77437C128.518 6.08521 145.011 7.35999 156.884 12.5433L157.667 10.6991L158.449 8.85477C145.656 3.26995 128.344 2.04463 109.995 4.79823C91.6099 7.55715 71.9936 14.3369 54.5017 24.9792C19.4967 46.2765 -7.23226 83.2436 1.98289 134.466L3.94086 134.116Z" fill="#FE9B3E"/>
</svg>
