<svg width="31" height="31" viewBox="0 0 31 31" fill="none" xmlns="http://www.w3.org/2000/svg">
<path d="M21.375 14.6316C21.375 13.7958 21.2759 12.9883 21.1767 12.1666H25.965C26.0784 12.6341 26.1775 13.1158 26.2342 13.5833C27.2542 13.6824 28.2317 13.9091 29.1667 14.2916C28.7559 6.79742 22.5792 0.833252 15 0.833252C7.16587 0.833252 0.833374 7.20825 0.833374 14.9999C0.833374 22.7916 7.20837 29.1666 15 29.1666C16.2325 29.1666 17.4225 28.9966 18.5417 28.6991C17.3896 27.296 16.671 25.5879 16.4734 23.7833C16.0342 24.6474 15.5525 25.4832 15 26.2766C13.8242 24.5766 12.875 22.6924 12.2942 20.6666H16.6717C16.9125 19.6466 17.3234 18.6974 17.8759 17.8333H11.685C11.5434 16.8983 11.4584 15.9633 11.4584 14.9999C11.4584 14.0366 11.5434 13.0874 11.685 12.1666H18.315C18.4425 13.0874 18.5417 14.0366 18.5417 14.9999C18.5417 15.7083 18.485 16.4166 18.4 17.1249C19.2001 16.0888 20.215 15.2382 21.375 14.6316ZM4.03504 17.8333C3.80837 16.9266 3.66671 15.9774 3.66671 14.9999C3.66671 14.0224 3.80837 13.0733 4.03504 12.1666H8.82337C8.71004 13.1016 8.62504 14.0366 8.62504 14.9999C8.62504 15.9633 8.71004 16.8983 8.82337 17.8333H4.03504ZM5.19671 20.6666H9.33337C9.82921 22.4374 10.4667 24.1374 11.3167 25.7099C8.73592 24.8207 6.56278 23.0299 5.19671 20.6666ZM9.33337 9.33325H5.19671C6.55478 6.96322 8.73081 5.17001 11.3167 4.28992C10.4667 5.86242 9.82921 7.56242 9.33337 9.33325ZM12.2942 9.33325C12.875 7.30742 13.8242 5.40909 15 3.70909C16.1759 5.40909 17.125 7.30742 17.7059 9.33325H12.2942ZM24.8034 9.33325H20.6242C20.1801 7.57887 19.5236 5.88523 18.6692 4.28992C21.2759 5.18242 23.4434 6.98159 24.8034 9.33325ZM30.5834 22.7916C30.5834 23.9533 30.2292 25.0299 29.6342 25.9224L28.09 24.3783C28.3309 23.8966 28.4584 23.3583 28.4584 22.7916C28.4584 21.8523 28.0852 20.9514 27.421 20.2872C26.7569 19.6231 25.856 19.2499 24.9167 19.2499V21.3749L21.7292 18.1874L24.9167 14.9999V17.1249C28.0475 17.1249 30.5834 19.6608 30.5834 22.7916ZM24.9167 24.2083L28.1042 27.3958L24.9167 30.5833V28.4583C21.7859 28.4583 19.25 25.9224 19.25 22.7916C19.25 21.6299 19.6042 20.5533 20.1992 19.6608L21.7434 21.2049C21.5025 21.6866 21.375 22.2249 21.375 22.7916C21.375 23.7309 21.7482 24.6317 22.4124 25.2959C23.0766 25.9601 23.9774 26.3333 24.9167 26.3333V24.2083Z" fill="white"/>
</svg>
